<?xml version="1.0" encoding="UTF-8" standalone="no"?>
<svg width="48px" height="48px" viewBox="0 0 48 48" version="1.1" xmlns="http://www.w3.org/2000/svg" xmlns:xlink="http://www.w3.org/1999/xlink">
    <!-- Generator: Sketch 41.2 (35397) - http://www.bohemiancoding.com/sketch -->
    <title>browser-close-2</title>
    <desc>Created with Sketch.</desc>
    <defs></defs>
    <g id="Page-1" stroke="none" stroke-width="1" fill="none" fill-rule="evenodd">
        <g id="browser-close-2" fill="#FFD700">
            <path d="M39,48 L9,48 C4.029,48 0,43.971 0,39 L0,9 C0,4.029 4.029,0 9,0 L39,0 C43.971,0 48,4.029 48,9 L48,39 C48,43.971 43.971,48 39,48 Z M9,3 C7.344,3 6,4.344 6,6 C6,7.656 7.344,9 9,9 C10.656,9 12,7.656 12,6 C12,4.344 10.656,3 9,3 Z M42,12 L6,12 L6,39 C6,40.659 7.344,42 9,42 L39,42 C40.659,42 42,40.659 42,39 L42,12 Z M30.363,33.363 C29.19,34.536 27.294,34.536 26.121,33.363 L24,31.242 L21.879,33.363 C20.706,34.536 18.807,34.536 17.637,33.363 C16.464,32.19 16.464,30.294 17.637,29.121 L19.758,27 L17.637,24.879 C16.464,23.706 16.464,21.807 17.637,20.637 C18.807,19.464 20.706,19.464 21.879,20.637 L24,22.758 L26.121,20.637 C27.294,19.464 29.19,19.464 30.363,20.637 C31.536,21.807 31.536,23.706 30.363,24.879 L28.242,27 L30.363,29.121 C31.536,30.294 31.536,32.19 30.363,33.363 Z" id="Shape"></path>
        </g>
    </g>
</svg>